<svg width="90" height="73" viewBox="0 0 90 73" fill="none" xmlns="http://www.w3.org/2000/svg">
<path d="M9.81266 1.00001C9.58109 1.04419 9.37257 1.16876 9.22391 1.35173C9.07525 1.5347 8.996 1.7643 9.00016 2.00001V9.37501C6.41012 9.15393 3.75971 9.00001 1.00016 9.00001C0.937793 8.99414 0.875017 8.99414 0.812655 9.00001C0.581086 9.04419 0.372569 9.16876 0.223908 9.35173C0.0752478 9.5347 -0.00399876 9.7643 0.000155405 10V62C0.000181922 62.2652 0.105547 62.5196 0.293078 62.7071C0.480609 62.8946 0.734947 63 1.00016 63C18.5969 63 32.6655 67.9232 44.6252 72.9063C44.8657 73.0035 45.1346 73.0035 45.3752 72.9063C57.3348 67.9232 71.4034 63 89.0002 63C89.2654 63 89.5197 62.8946 89.7072 62.7071C89.8948 62.5196 90.0001 62.2652 90.0002 62V10C90.0001 9.7348 89.8948 9.48046 89.7072 9.29293C89.5197 9.1054 89.2654 9.00004 89.0002 9.00001C86.2406 9.00001 83.5902 9.15393 81.0002 9.37501V2.00001C81.0001 1.7348 80.8948 1.48046 80.7072 1.29293C80.5197 1.1054 80.2654 1.00004 80.0002 1.00001C66.6389 1.00001 54.0694 5.90443 45.0002 10.875C35.9309 5.90443 23.3614 1.00001 10.0002 1.00001C9.93779 0.994138 9.87502 0.994138 9.81266 1.00001V1.00001ZM11.0002 3.09376C23.4878 3.33489 35.3669 7.9014 44.0002 12.625V68C41.0179 64.2886 36.4165 61.085 31.0314 58.6875C24.7621 55.8964 17.5835 54.2227 11.0002 54.0625V3.09376ZM79.0002 3.09376V54.0625C72.4168 54.2227 65.2382 55.8964 58.9689 58.6875C53.5838 61.085 48.9825 64.2886 46.0002 68V12.625C54.6334 7.9014 66.5125 3.33489 79.0002 3.09376ZM2.00016 11.0313C4.39353 11.0584 6.73071 11.152 9.00016 11.3438V55C9.00018 55.2652 9.10555 55.5196 9.29308 55.7071C9.48061 55.8946 9.73495 56 10.0002 56C16.4943 56 23.8862 57.712 30.2189 60.5313C35.9242 63.0714 40.744 66.5327 43.3439 70.25C31.954 65.6209 18.5114 61.2435 2.00016 61.0625V11.0313ZM88.0002 11.0313V61.0625C71.4889 61.2435 58.0463 65.6209 46.6564 70.25C49.2564 66.5327 54.0761 63.0714 59.7814 60.5313C66.1141 57.712 73.506 56 80.0002 56C80.2654 56 80.5197 55.8946 80.7072 55.7071C80.8948 55.5196 81.0001 55.2652 81.0002 55V11.3438C83.2696 11.152 85.6068 11.0584 88.0002 11.0313Z" fill="black"/>
</svg>
